<svg id="Group_64690" data-name="Group 64690" xmlns="http://www.w3.org/2000/svg" xmlns:xlink="http://www.w3.org/1999/xlink" width="47.317" height="48.435" viewBox="0 0 47.317 48.435">
  <defs>
    <clipPath id="clip-path">
      <rect id="Rectangle_9149" data-name="Rectangle 9149" width="47.317" height="48.435" fill="#afafb0"/>
    </clipPath>
  </defs>
  <g id="Group_64689" data-name="Group 64689" clip-path="url(#clip-path)">
    <path id="Path_29794" data-name="Path 29794" d="M29.152,48.336a.68.68,0,0,1-.5.092q-11.14,0-22.28,0a6.145,6.145,0,0,1-6.2-4.792A6.617,6.617,0,0,1,0,42.066Q0,24.221,0,6.375A6.146,6.146,0,0,1,6.31.012C11.572-.012,16.835.011,22.1,0a4.163,4.163,0,0,1,2.92,1.14Q30.323,5.976,35.644,10.8a4.4,4.4,0,0,1,1.543,3.49c-.026,3.326-.016,6.652,0,9.978,0,.413-.1.518-.523.519A12.88,12.88,0,0,0,23.811,35.859a12.648,12.648,0,0,0,4.973,12.193c.109.088.222.171.369.284M22.132,2.96l-.16.141c0,3.287-.008,6.573.007,9.86,0,.714.509,1.116,1.316,1.117q5.195,0,10.39,0c.124,0,.283.076.442-.212L22.132,2.96M14.685,22.528q-3.562,0-7.125,0a1.7,1.7,0,1,0-.026,3.379q7.125,0,14.25,0a1.7,1.7,0,1,0-.027-3.378q-3.536,0-7.072,0M11.847,33.8c1.388,0,2.777,0,4.165,0a3.351,3.351,0,0,0,.731-.07,1.685,1.685,0,0,0,1.285-1.709,1.637,1.637,0,0,0-1.55-1.58q-4.639-.035-9.278,0a1.581,1.581,0,0,0-1.506,1.253A1.691,1.691,0,0,0,7.419,33.8c1.476.021,2.952,0,4.429.006m-.59-15.79c1.266,0,2.532.006,3.8,0a1.693,1.693,0,1,0,.017-3.374q-3.8-.016-7.6,0A1.723,1.723,0,0,0,5.63,16.321a1.7,1.7,0,0,0,1.83,1.69c1.266.009,2.532,0,3.8,0" transform="translate(0 -0.001)" fill="#afafb0"/>
    <path id="Path_29795" data-name="Path 29795" d="M194.355,191.67a10.691,10.691,0,1,1-10.748,10.665,10.691,10.691,0,0,1,10.748-10.665m-1.72,8.475h0c0,.738,0,1.476,0,2.213a1.6,1.6,0,0,0,.9,1.5c.76.4,1.526.793,2.306,1.152a1.684,1.684,0,0,0,1.477-3.027,8.9,8.9,0,0,0-.943-.466.546.546,0,0,1-.375-.6c.018-1,.024-2,0-3a1.714,1.714,0,0,0-1.733-1.744,1.692,1.692,0,0,0-1.638,1.77c-.011.738,0,1.475,0,2.213" transform="translate(-157.7 -164.626)" fill="#afafb0"/>
  </g>
</svg>
